<svg xmlns="http://www.w3.org/2000/svg" viewBox="0 0 800 1000" role="img" aria-label="Juneteenth flag line art coloring page">
  <rect x="18" y="18" width="764" height="964" rx="28" fill="#fff" stroke="#111" stroke-width="4"/>

  <text x="400" y="108" text-anchor="middle" font-size="56" font-family="Avenir Next, Segoe UI, sans-serif" font-weight="800" fill="none" stroke="#111" stroke-width="2">Juneteenth Flag</text>
  <text x="400" y="152" text-anchor="middle" font-size="24" font-family="Avenir Next, Segoe UI, sans-serif" font-weight="700" fill="none" stroke="#111" stroke-width="1.1">Line art inspired by the official flag</text>

  <rect x="92" y="220" width="616" height="540" fill="none" stroke="#111" stroke-width="4"/>

  <path
    d="M92 548 C210 486 312 462 400 462 C488 462 590 486 708 548"
    fill="none"
    stroke="#111"
    stroke-width="6"
    stroke-linecap="round"
  />

  <g transform="translate(400 438)" fill="none" stroke="#111" stroke-width="7" stroke-linejoin="round" stroke-linecap="round">
    <polygon points="0,-158 28,-86 102,-130 88,-54 166,-46 104,0 166,46 88,54 102,130 28,86 0,158 -28,86 -102,130 -88,54 -166,46 -104,0 -166,-46 -88,-54 -102,-130 -28,-86"/>
  </g>

  <g transform="translate(400 438)" fill="none" stroke="#111" stroke-width="5" stroke-linejoin="round">
    <polygon points="0,-74 20,-22 76,-14 34,20 46,74 0,44 -46,74 -34,20 -76,-14 -20,-22"/>
  </g>

  <g fill="none" stroke="#111" stroke-width="4" stroke-linecap="round">
    <path d="M160 836 q34 -24 68 0"/>
    <path d="M572 836 q34 -24 68 0"/>
    <path d="M252 878 q42 -18 84 0"/>
    <path d="M464 878 q42 -18 84 0"/>
  </g>

  <g transform="translate(184 820)" fill="none" stroke="#111" stroke-width="4" stroke-linecap="round" stroke-linejoin="round">
    <circle cx="0" cy="0" r="18"/>
    <circle cx="40" cy="0" r="18"/>
    <circle cx="20" cy="-30" r="18"/>
    <path d="M20 18 V88"/>
    <path d="M20 46 C-12 26 -26 64 -2 74"/>
    <path d="M20 58 C54 34 74 76 40 88"/>
  </g>

  <g transform="translate(576 820)" fill="none" stroke="#111" stroke-width="4" stroke-linecap="round" stroke-linejoin="round">
    <circle cx="0" cy="0" r="18"/>
    <circle cx="40" cy="0" r="18"/>
    <circle cx="20" cy="-30" r="18"/>
    <path d="M20 18 V88"/>
    <path d="M20 46 C-12 26 -26 64 -2 74"/>
    <path d="M20 58 C54 34 74 76 40 88"/>
  </g>

  <text x="400" y="940" text-anchor="middle" font-size="30" font-family="Avenir Next, Segoe UI, sans-serif" font-weight="700" fill="none" stroke="#111" stroke-width="1.3">Color the flag, starburst, and horizon</text>
</svg>
