<svg xmlns="http://www.w3.org/2000/svg" viewBox="0 0 800 1000" role="img" aria-label="Celebrating Juneteenth coloring page">
  <rect x="18" y="18" width="764" height="964" rx="28" fill="#fff" stroke="#111" stroke-width="4"/>

  <g fill="none" stroke="#111" stroke-width="4" stroke-linecap="round">
    <path d="M36 54 C110 26 176 6 238 0"/>
    <path d="M126 76 C190 38 244 6 296 -22"/>
    <path d="M670 0 C734 8 790 28 850 60"/>
    <path d="M570 -10 C628 18 684 52 744 88"/>
  </g>

  <text x="400" y="112" text-anchor="middle" font-size="54" font-family="Avenir Next, Segoe UI, sans-serif" font-weight="800" fill="none" stroke="#111" stroke-width="2">CELEBRATING</text>
  <text x="400" y="182" text-anchor="middle" font-size="72" font-family="Brush Script MT, Segoe Script, cursive" font-weight="700" fill="none" stroke="#111" stroke-width="1.8">Juneteenth</text>

  <g transform="translate(400 248)" fill="none" stroke="#111" stroke-width="4" stroke-linejoin="round">
    <path d="M-140 -24 H140 V24 H-140 Z"/>
    <path d="M-140 -24 L-194 -24 L-164 12 L-194 48 L-140 48"/>
    <path d="M140 -24 L194 -24 L164 12 L194 48 L140 48"/>
  </g>
  <text x="400" y="266" text-anchor="middle" font-size="44" font-family="Avenir Next, Segoe UI, sans-serif" font-weight="800" fill="none" stroke="#111" stroke-width="1.8">June 19<tspan dy="-14" font-size="20">th</tspan></text>

  <g fill="none" stroke="#111" stroke-width="4" stroke-linecap="round" stroke-linejoin="round">
    <path d="M112 790 C112 736 102 664 106 606 C108 576 122 554 142 554 C162 554 170 580 170 608 V712"/>
    <path d="M170 608 C170 566 184 540 204 540 C224 540 230 566 230 606 V726"/>
    <path d="M230 606 C230 560 244 534 264 534 C284 534 290 564 290 608 V724"/>
    <path d="M290 608 C290 572 304 548 322 548 C340 548 348 574 348 612 V786"/>
    <path d="M170 708 C136 696 116 716 112 748 C108 780 122 812 144 836 C162 856 178 884 182 920"/>
    <path d="M210 792 C210 826 192 862 180 920"/>
    <path d="M272 790 C274 832 284 876 286 920"/>

    <path d="M316 792 C316 716 304 614 308 520 C310 482 326 456 346 456 C366 456 374 486 374 528 V704"/>
    <path d="M374 528 C374 470 390 438 410 438 C430 438 438 472 438 530 V714"/>
    <path d="M438 530 C438 476 454 446 474 446 C494 446 500 480 500 532 V726"/>
    <path d="M500 532 C500 494 514 468 532 468 C550 468 558 498 558 536 V792"/>
    <path d="M438 688 C478 670 510 696 520 728 C532 764 526 806 506 836 C486 868 470 892 468 920"/>
    <path d="M382 792 C380 828 376 878 374 920"/>
    <path d="M542 792 C544 830 548 878 550 920"/>

    <path d="M624 792 C624 694 612 606 616 560 C618 528 632 506 650 506 C668 506 676 530 676 564 V700"/>
    <path d="M676 564 C676 520 692 494 710 494 C728 494 736 522 736 566 V714"/>
    <path d="M736 566 C736 534 748 510 764 510 C780 510 786 538 786 572 V784"/>
    <path d="M676 708 C646 700 624 718 622 748 C620 784 634 820 654 846 C668 864 680 888 682 920"/>
    <path d="M724 792 C722 832 718 878 716 920"/>
    <path d="M772 790 C774 826 782 874 784 920"/>
  </g>

  <g fill="none" stroke="#111" stroke-width="4">
    <path d="M146 712 C126 684 96 684 82 706 C70 726 78 756 114 786 C150 756 158 726 146 712 Z"/>
    <path d="M402 602 C382 574 352 574 338 596 C326 616 334 646 370 676 C406 646 414 616 402 602 Z"/>
    <path d="M478 770 C456 740 422 740 408 764 C396 784 406 812 444 844 C482 812 490 784 478 770 Z"/>
    <path d="M662 712 C642 684 612 684 598 706 C586 726 594 756 630 786 C666 756 674 726 662 712 Z"/>
  </g>

  <g fill="none" stroke="#111" stroke-width="3.6" stroke-linecap="round" stroke-linejoin="round">
    <path d="M84 360 C100 338 128 338 144 360 C154 374 148 392 126 412 C104 392 74 376 84 360 Z"/>
    <path d="M212 324 C228 302 256 302 272 324 C282 338 276 356 254 376 C232 356 202 340 212 324 Z"/>
    <path d="M352 364 C368 342 396 342 412 364 C422 378 416 396 394 416 C372 396 342 380 352 364 Z"/>
    <path d="M452 456 C464 440 486 440 498 456 C506 466 502 480 484 496 C466 480 444 468 452 456 Z"/>
    <path d="M548 332 C564 310 592 310 608 332 C618 346 612 364 590 384 C568 364 538 348 548 332 Z"/>
    <path d="M664 364 C680 342 708 342 724 364 C734 378 728 396 706 416 C684 396 654 380 664 364 Z"/>
    <path d="M108 468 C118 454 138 454 148 468 C154 478 150 490 134 504 C118 490 102 478 108 468 Z"/>
    <path d="M612 420 C622 406 642 406 652 420 C658 430 654 442 638 456 C622 442 606 430 612 420 Z"/>
    <path d="M716 490 C726 476 746 476 756 490 C762 500 758 512 742 526 C726 512 710 500 716 490 Z"/>
    <path d="M46 562 C56 548 76 548 86 562 C92 572 88 584 72 598 C56 584 40 572 46 562 Z"/>
    <path d="M748 606 C758 592 778 592 788 606 C794 616 790 628 774 642 C758 628 742 616 748 606 Z"/>
  </g>
</svg>
